<?xml version="1.0" encoding="utf-8"?>
<!-- Generator: Adobe Illustrator 24.0.0, SVG Export Plug-In . SVG Version: 6.00 Build 0)  -->
<svg version="1.1" id="Layer_1" xmlns="http://www.w3.org/2000/svg" xmlns:xlink="http://www.w3.org/1999/xlink" x="0px" y="0px"
	 viewBox="0 0 80 80" style="enable-background:new 0 0 80 80;" xml:space="preserve">
<style type="text/css">
	.st0{fill:#79C580;}
	.st1{fill:#FFFFFF;}
</style>
<g>
	<g>
		<g>
			<g>
				<path class="st0" d="M67.64,29.55c-0.16-0.16-0.26-0.39-0.26-0.63V13.4H51.86c-0.23,0-0.46-0.1-0.63-0.26L40.26,2.17
					L29.28,13.14c-0.16,0.16-0.39,0.26-0.63,0.26H13.14v15.52c0,0.23-0.1,0.46-0.26,0.63L1.9,40.52L12.88,51.5
					c0.16,0.16,0.26,0.39,0.26,0.63v15.52h15.52c0.23,0,0.46,0.1,0.63,0.26l10.97,10.97L51.23,67.9c0.16-0.16,0.39-0.26,0.63-0.26
					h15.52V52.12c0-0.23,0.1-0.46,0.26-0.63l10.97-10.97L67.64,29.55z M67.27,41.15l-7.47,7.47v10.56c0,0.49-0.39,0.89-0.89,0.89
					H48.35l-7.47,7.47c-0.16,0.16-0.39,0.26-0.63,0.26s-0.44-0.08-0.63-0.26l-7.47-7.47H21.6c-0.49,0-0.89-0.39-0.89-0.89V48.62
					l-7.47-7.47c-0.35-0.35-0.35-0.9,0-1.25l7.47-7.47V21.86c0-0.49,0.39-0.89,0.89-0.89h10.56l7.47-7.47c0.35-0.35,0.9-0.35,1.25,0
					l7.47,7.47h10.56c0.49,0,0.89,0.39,0.89,0.89v10.56l7.47,7.47C67.62,40.24,67.62,40.8,67.27,41.15z"/>
				<path class="st0" d="M58.04,32.79V22.73H47.99c-0.23,0-0.46-0.1-0.63-0.26l-7.11-7.09l-7.11,7.11
					c-0.16,0.16-0.39,0.26-0.63,0.26H22.47V32.8c0,0.23-0.1,0.46-0.26,0.63l-7.11,7.11l7.11,7.11c0.16,0.16,0.26,0.39,0.26,0.63
					v10.05h10.05c0.23,0,0.46,0.1,0.63,0.26l7.11,7.08l7.11-7.11c0.16-0.16,0.39-0.26,0.63-0.26h10.05V48.24
					c0-0.23,0.1-0.46,0.26-0.63l7.11-7.11l-7.11-7.11C58.13,33.25,58.04,33.03,58.04,32.79z"/>
			</g>
		</g>
	</g>
	<path class="st1" d="M45.51,46.03H35.25l-2.33,4.6h-5.55l12.62-24.8h1.45l11.71,24.8h-5.49L45.51,46.03z M43.18,41.08l-2.59-5.52
		l-2.79,5.52H43.18z"/>
</g>
</svg>
